<?xml version="1.0"?>
<svg xmlns="http://www.w3.org/2000/svg" xmlns:xlink="http://www.w3.org/1999/xlink" xmlns:svgjs="http://svgjs.com/svgjs" version="1.1" width="512" height="512" x="0" y="0" viewBox="0 0 64 64" style="enable-background:new 0 0 512 512" xml:space="preserve" class=""><g><g xmlns="http://www.w3.org/2000/svg"><path d="m55.153 20.276c.318-.305.33-.812.025-1.131l-.272-.286c-.148-.156-.349-.244-.562-.249-.219.003-.417.074-.572.222-.044.042-.079.083-.109.129l-2.717 4.056c.292.138.58.288.861.454z" fill="#fa4a0c" data-original="#000000" style=""/><path d="m3.306 46.232c1.529 8.386 8.874 14.768 17.694 14.768h22c8.82 0 16.165-6.382 17.694-14.768-4.891 3.14-16.844 4.768-28.694 4.768s-23.803-1.628-28.694-4.768zm38.694 10.768h1c5.195 0 9.939-2.862 12.381-7.468l1.768.937c-2.79 5.262-8.211 8.531-14.149 8.531h-1zm-4 0h2v2h-2z" fill="#fa4a0c" data-original="#000000" style=""/><path d="m42.187 16.288-1.567-10.183c-.276-1.799-1.799-3.105-3.62-3.105s-3.344 1.306-3.62 3.105l-1.654 10.748 3.651 2.84zm-4.187-10.288h2v2h-2zm0 4h2v2h-2zm0 4h2v2h-2zm-4-8h2v2h-2zm0 4h2v2h-2zm0 4h2v2h-2z" fill="#fa4a0c" data-original="#000000" style=""/><path d="m39.845 26.592c-.331.316-.641.66-.919 1.021l-4.633 6.018c.266.806.454 1.645.569 2.507l.846-.846 8 8-1.414 1.414-7.324-7.324c.008.207.03.41.03.618 0 4.336-2.017 8.359-5.324 10.978.762.013 1.534.022 2.324.022 2.583 0 5.017-.074 7.301-.205l11.907-8.311c.375-.262.732-.554 1.062-.869l.17-.163c3.591-3.426 3.724-9.134.298-12.725-3.427-3.591-9.136-3.724-12.725-.297zm6.448 14.115-8-8 1.414-1.414 8 8zm-2.586-13.414 8 8-1.414 1.414-8-8z" fill="#fa4a0c" data-original="#000000" style=""/><path d="m54.186 25.347c.233.244.448.499.654.758l5.1-4.868c.193-.185.304-.433.31-.7.007-.267-.092-.521-.276-.714-.38-.397-1.015-.415-1.414-.033l-2.025 1.933s-.001.001-.001.002l-3.074 2.933c.248.218.493.444.726.689z" fill="#fa4a0c" data-original="#000000" style=""/><path d="m59.293 24.619-3.345 3.193c.152.289.289.583.413.881l4.174-2.521c.051-.031.097-.066.137-.104.157-.15.245-.349.251-.563.005-.214-.074-.417-.222-.572l-.273-.286c-.148-.156-.348-.244-.562-.249-.24.008-.418.074-.573.221z" fill="#fa4a0c" data-original="#000000" style=""/><path d="m55.007 39.548c-.356.473-.743.929-1.185 1.351l-.17.162c-.403.385-.841.743-1.299 1.062l-9.137 6.377c11.228-1.053 17.784-3.569 17.784-5.5 0-.817-1.591-2.188-5.993-3.452z" fill="#fa4a0c" data-original="#000000" style=""/><path d="m29.425 17.598c-.422 1.166-1.015 3.16-1.283 5.713l5.252-2.626z" fill="#fa4a0c" data-original="#000000" style=""/><path d="m33.397 31.517 3.945-5.124c.34-.442.717-.861 1.121-1.247l.169-.162c1.986-1.895 4.503-2.89 7.051-3.015-.327-2.076-.837-3.67-1.188-4.598l-16.484 8.242c-.001.096-.007.186-.008.283 2.285 1.327 4.162 3.276 5.394 5.621z" fill="#fa4a0c" data-original="#000000" style=""/><path d="m13.762 47.561c3.404.616 7.548 1.087 12.323 1.305 4.206-1.972 6.915-6.21 6.915-10.866 0-6.281-4.853-11.442-11.006-11.95-.044-6.001-.485-12.05-4.994-12.05v2c2.643 0 2.957 5.165 2.995 10.051-6.148.513-10.995 5.672-10.995 11.949 0 3.742 1.781 7.299 4.762 9.561zm5.238-18.561c0 .408.779 1 2 1s2-.592 2-1h2c0 1.682-1.757 3-4 3s-4-1.318-4-3zm-6.96 4.555 1.791.891c-.281.564-.494 1.162-.633 1.776l-1.951-.442c.175-.77.441-1.519.793-2.225zm.96 4.445c0 3.06 1.703 5.807 4.445 7.169l-.891 1.791c-3.425-1.703-5.554-5.136-5.554-8.96z" fill="#fa4a0c" data-original="#000000" style=""/><path d="m10.12 46.78c-1.541-1.916-2.556-4.213-2.935-6.653-3.059 1.099-4.185 2.21-4.185 2.873 0 1.198 2.526 2.62 7.12 3.78z" fill="#fa4a0c" data-original="#000000" style=""/><path d="m15 24h4.899c-.465-2.279-2.484-4-4.899-4h-4.899c.464 2.279 2.484 4 4.899 4z" fill="#fa4a0c" data-original="#000000" style=""/></g></g></svg>
